# xmcd CD database file
#
# Track frame offsets:
#	183
#	17883
#	38415
#	49210
#	68735
#	82630
#	102508
#	116033
#	132500
#	158648
#	165623
#	186290
#	197538
#	223573
#	242608
#	269673
#
# Disc length: 3891 seconds
#
# Revision: 0
# Processed by: cddbd v1.4PL0 Copyright (c) Steve Scherf et al.
# Submitted via: Feurio! 1.65 - http://www.feurio.com
#
DISCID=d90f3110
DTITLE=Cub Koda and The Houserockers - It's The Blues
DYEAR=1991
DGENRE=blues
TTITLE0=Riding In The Moonlight
TTITLE1=Somebody Changed The Look
TTITLE2=Mama Talk To Your Daughter
TTITLE3=Nine Below Zero
TTITLE4=Rockin' This Joint Tonight
TTITLE5=Feelin' Good
TTITLE6=Tough Times
TTITLE7=Just Like I Treat You
TTITLE8=The Dirty Duck Blues
TTITLE9=Bright Lights, Big City
TTITLE10=Signals Of Love
TTITLE11=Howlin' For My Darlin
TTITLE12=Louise
TTITLE13=Riding In The Moonlight
TTITLE14=Anna Lee
TTITLE15=Sylvester and Old Gus
EXTD=
EXTT0=
EXTT1=
EXTT2=
EXTT3=
EXTT4=
EXTT5=
EXTT6=
EXTT7=
EXTT8=
EXTT9=
EXTT10=
EXTT11=
EXTT12=
EXTT13=
EXTT14=
EXTT15=
PLAYORDER=
